<svg id="Capa_1" enable-background="new 0 0 512 512" height="512" viewBox="0 0 512 512" width="512" xmlns="http://www.w3.org/2000/svg" xmlns:xlink="http://www.w3.org/1999/xlink"><linearGradient id="SVGID_1_" gradientUnits="userSpaceOnUse" x1="256" x2="256" y1="496" y2="16"><stop offset="0" stop-color="#00b59c"/><stop offset="1" stop-color="#9cffac"/></linearGradient><g><g><g><path d="m497 16h-482c-8.212 0-15 6.705-15 15v240c0 24.813 20.187 45 45 45h83.722c-4.994 14.082-7.722 29.227-7.722 45 0 74.439 60.561 135 135 135s135-60.561 135-135c0-15.773-2.728-30.918-7.722-45h83.722c24.813 0 45-20.187 45-45v-240c0-8.263-6.763-15-15-15zm-50.853 30-182.002 117.6c-2.419 1.57-5.235 2.4-8.145 2.4s-5.726-.83-8.17-2.416l-181.977-117.584zm-190.147 420c-57.897 0-105-47.103-105-105s47.103-105 105-105 105 47.103 105 105-47.103 105-105 105zm226-195c0 8.271-6.729 15-15 15h-98.806c-24.247-36.154-65.487-60-112.194-60s-87.947 23.846-112.194 60h-98.806c-8.271 0-15-6.729-15-15v-212.449l201.523 130.214c7.293 4.733 15.757 7.235 24.477 7.235s17.184-2.502 24.452-7.219l201.548-130.23zm-166 75h-45v-45c0-8.284-6.716-15-15-15s-15 6.716-15 15v45h-45c-8.284 0-15 6.716-15 15s6.716 15 15 15h45v45c0 8.284 6.716 15 15 15s15-6.716 15-15v-45h45c8.284 0 15-6.716 15-15s-6.716-15-15-15z" fill="red"/></g></g></g></svg>