<svg xmlns="http://www.w3.org/2000/svg" xmlns:xlink="http://www.w3.org/1999/xlink" version="1.1" x="0px" y="0px" viewBox="0 0 100 125" enable-background="new 0 0 100 100" xml:space="preserve"><path d="M98.332,49.957c0,26.11-21.16,47.285-47.269,47.285c-26.109,0-47.269-21.175-47.269-47.285  c0-26.092,21.16-47.267,47.269-47.267C77.172,2.689,98.332,23.865,98.332,49.957L98.332,49.957z M77.306,21.73  c-7.735,0.608-15.218,2.949-21.915,6.875c-0.238,2.03-0.297,4.09-0.164,6.149c-0.874-1.511-1.541-3.141-1.985-4.816  c-10.387,6.816-17.929,17.144-21.248,29.116c-3.809,5.156-6.965,10.787-9.38,16.744C33.46,57.811,48.055,42.372,65.408,30.488  c-10.463,9.69-20.375,19.973-29.667,30.76c12.181-2.267,23.175-8.771,31.043-18.343c-3.053-0.282-6.119-0.192-9.143,0.297  c3.438-1.571,7.156-2.459,10.935-2.608c1.083-1.482,2.104-3.053,3.038-4.638c-2.415,0.208-4.815,0.652-7.142,1.289  c2.519-1.511,5.29-2.578,8.179-3.17C74.712,30.177,76.283,26.028,77.306,21.73z M29.889,76.941  c3.305-2.061,7.334-2.594,11.069-1.469c4.578,1.883,9.72,1.928,14.343,0.119c0.326-0.133,0.475-0.504,0.355-0.829  c-0.118-0.341-0.488-0.489-0.829-0.356c-4.327,1.704-9.143,1.645-13.44-0.133c-4.104-1.26-8.535-0.682-12.18,1.601  c-0.296,0.177-0.385,0.577-0.192,0.874C29.192,77.044,29.578,77.133,29.889,76.941z"/><text x="0" y="115" fill="red" font-size="5px" font-weight="bold" font-family="'Helvetica Neue', Helvetica, Arial-Unicode, Arial, Sans-serif">Created by Aldric Rodríguez</text><text x="0" y="120" fill="#000000" font-size="5px" font-weight="bold" font-family="'Helvetica Neue', Helvetica, Arial-Unicode, Arial, Sans-serif"></text></svg>