<svg height="512" viewBox="0 0 64 64" width="512" xmlns="http://www.w3.org/2000/svg"><g id="Send_mail-2" data-name="Send mail"><path d="m28 18h8v9h-8z" fill="#57a4ff"/><path d="m37.5 33 16.5 15v-30z" fill="#ff9811"/><path d="m10 18v30l16.5-15z" fill="#ff9811"/><path d="m33.345 36.777a2 2 0 0 1 -2.69 0l-4.155-3.777-16.5 15h44l-16.5-15z" fill="#ffa733"/><path d="m36 18h-26l16.5 15 4.155 3.777a2 2 0 0 0 2.69 0l4.155-3.777 16.5-15z" fill="#ffb655"/><path d="m36 27v-9-4h5l-9.03-11-8.97 11h5v4 9z" fill="#d80027"/><path d="m50 21.636v14.364a7.971 7.971 0 0 1 -2.66 5.945l6.66 6.055v-30z" fill="#ee8700"/><path d="m10 44v4l4.4-4z" fill="#ee8700"/><path d="m42 44h-27.6l-4.4 4h44l-6.66-6.055a7.959 7.959 0 0 1 -5.34 2.055z" fill="#cc7400"/><path d="m33.345 36.777a2 2 0 0 1 -2.69 0l-4.155-3.777-12.1 11h27.6a7.959 7.959 0 0 0 5.34-2.055l-9.84-8.945z" fill="#ee8700"/><path d="m59.828 36.828-5.828-5.828v6.34l-1.826-1.826a2 2 0 0 0 -2.828 0 2 2 0 0 0 0 2.828l3.37 3.37a1.97 1.97 0 0 1 -.037 2.753 4.1 4.1 0 0 0 -.5.574 3.993 3.993 0 0 0 -.694 2.925l-.015.036h-5.47v.515a6 6 0 0 0 1.757 4.242l.657.657a2 2 0 0 1 .586 1.414v6.172h12v-21.343a4 4 0 0 0 -1.172-2.829z" fill="#ffbcab"/><path d="m4.172 36.828 5.828-5.828v6.34l1.826-1.826a2 2 0 0 1 2.828 0 2 2 0 0 1 0 2.828l-3.37 3.37a1.97 1.97 0 0 0 .037 2.753 4.1 4.1 0 0 1 .5.574 3.993 3.993 0 0 1 .694 2.925l.015.036h5.47v.515a6 6 0 0 1 -1.757 4.242l-.657.657a2 2 0 0 0 -.586 1.414v6.172h-12v-21.343a4 4 0 0 1 1.172-2.829z" fill="#ffbcab"/><path d="m60.535 36.122-5.535-5.536v-12.586a1 1 0 0 0 -1-1h-17v-2h4a1 1 0 0 0 .772-1.634l-9.03-11a1 1 0 0 0 -1.548 0l-8.969 11a1 1 0 0 0 .775 1.634h4v2h-17a1 1 0 0 0 -1 1v12.586l-5.535 5.536a4.968 4.968 0 0 0 -1.465 3.535v21.343a1 1 0 0 0 2 0v-21.343a3.017 3.017 0 0 1 .879-2.121l4.121-4.122v3.512l-2.537 2.537a1 1 0 0 0 1.414 1.414l2.83-2.83 1.826-1.826a1.023 1.023 0 0 1 1.414 0l.014.012a1 1 0 0 1 -.012 1.4l-3.372 3.371a2.923 2.923 0 0 0 .063 4.196 3.017 3.017 0 0 1 .28 4.052l-1.7 2.126a1 1 0 0 0 1.562 1.25l1.7-2.126a4.9 4.9 0 0 0 .806-1.5h3.665a4.946 4.946 0 0 1 -1.418 3.05l-.656.657a2.978 2.978 0 0 0 -.879 2.12v6.171a1 1 0 0 0 2 0v-6.171a1 1 0 0 1 .293-.708l.656-.656a6.943 6.943 0 0 0 2.027-4.465h26.048a6.939 6.939 0 0 0 2.027 4.464l.656.657a1 1 0 0 1 .293.708v6.171a1 1 0 0 0 2 0v-6.171a2.983 2.983 0 0 0 -.879-2.122l-.656-.657a4.946 4.946 0 0 1 -1.418-3.05h3.665a4.9 4.9 0 0 0 .806 1.5l1.7 2.126a1 1 0 1 0 1.562-1.25l-1.7-2.125a3.019 3.019 0 0 1 .284-4.057 2.922 2.922 0 0 0 .058-4.186l-3.37-3.369a1 1 0 0 1 -.013-1.4l.014-.013a1.024 1.024 0 0 1 1.414 0l1.826 1.826 2.83 2.83a1 1 0 0 0 1.414-1.414l-2.537-2.542v-3.512l4.121 4.122a3.017 3.017 0 0 1 .879 2.121v21.343a1 1 0 0 0 2 0v-21.343a4.968 4.968 0 0 0 -1.465-3.535zm-35.43-23.122 6.868-8.421 6.913 8.421h-2.886a1 1 0 0 0 -1 1v12h-6v-12a1 1 0 0 0 -1-1zm2.895 15h8a1 1 0 0 0 1-1v-8h14.414l-18.74 17.037a1 1 0 0 1 -1.347 0l-18.74-17.037h14.413v8a1 1 0 0 0 1 1zm22.45 19h-36.9a5.051 5.051 0 0 0 -.122-.763l13.072-11.886 3.482 3.166a2.993 2.993 0 0 0 4.037 0l3.481-3.165 13.072 11.884a5.084 5.084 0 0 0 -.122.764zm-38.458-4.579 3.372-3.37a3.006 3.006 0 0 0 0-4.242l-.022-.021a3.072 3.072 0 0 0 -4.223.019l-.119.119v-14.666l14.014 12.74-12.478 11.344a4.816 4.816 0 0 0 -.525-.6.924.924 0 0 1 -.019-1.32zm40.889-7.614a3.073 3.073 0 0 0 -4.222-.02l-.023.022a3 3 0 0 0 0 4.242l3.37 3.37a.922.922 0 0 1 -.022 1.323 4.828 4.828 0 0 0 -.522.6l-12.475-11.344 14.013-12.739v14.665z" fill="#231f20"/></g></svg>